<?xml version="1.0" encoding="UTF-8" standalone="no"?>
<svg
   xmlns:dc="http://purl.org/dc/elements/1.1/"
   xmlns:cc="http://creativecommons.org/ns#"
   xmlns:rdf="http://www.w3.org/1999/02/22-rdf-syntax-ns#"
   xmlns:svg="http://www.w3.org/2000/svg"
   xmlns="http://www.w3.org/2000/svg"
   xmlns:sodipodi="http://sodipodi.sourceforge.net/DTD/sodipodi-0.dtd"
   xmlns:inkscape="http://www.inkscape.org/namespaces/inkscape"
   height="490"
   version="1.0"
   viewBox="0 0 750 490"
   width="750"
   id="svg2"
   sodipodi:version="0.32"
   inkscape:version="0.46"
   sodipodi:docname="Pyridoxine_structure.svg"
   inkscape:output_extension="org.inkscape.output.svg.inkscape">
  <metadata
     id="metadata49">
    <rdf:RDF>
      <cc:Work
         rdf:about="">
        <dc:format>image/svg+xml</dc:format>
        <dc:type
           rdf:resource="http://purl.org/dc/dcmitype/StillImage" />
      </cc:Work>
    </rdf:RDF>
  </metadata>
  <defs
     id="defs47">
    <inkscape:perspective
       sodipodi:type="inkscape:persp3d"
       inkscape:vp_x="0 : 245 : 1"
       inkscape:vp_y="0 : 1000 : 0"
       inkscape:vp_z="750 : 245 : 1"
       inkscape:persp3d-origin="375 : 163.33333 : 1"
       id="perspective51" />
  </defs>
  <sodipodi:namedview
     inkscape:window-height="997"
     inkscape:window-width="1680"
     inkscape:pageshadow="2"
     inkscape:pageopacity="0.0"
     guidetolerance="10.0"
     gridtolerance="10.0"
     objecttolerance="10.0"
     borderopacity="1.0"
     bordercolor="#666666"
     pagecolor="#ffffff"
     id="base"
     showgrid="false"
     inkscape:zoom="0.92266667"
     inkscape:cx="375"
     inkscape:cy="245"
     inkscape:window-x="-8"
     inkscape:window-y="-8"
     inkscape:current-layer="svg2" />
  <g
     font-family="Helvetica"
     font-size="60pt"
     stroke-linecap="round"
     id="g4">
    <g
       stroke="#000000"
       stroke-width="5"
       id="g6">
      <line
         x1="525.2"
         x2="591.3"
         y1="188.9"
         y2="303.2"
         id="line8" />
      <line
         x1="326.9"
         x2="393.0"
         y1="303.5"
         y2="188.9"
         id="line10" />
      <line
         x1="326.8"
         x2="230"
         y1="74.4"
         y2="74.4"
         id="line12" />
      <line
         x1="393.0"
         x2="490"
         y1="417.8"
         y2="417.8"
         id="line14" />
      <line
         x1="393.0"
         x2="326.8"
         y1="188.9"
         y2="74.4"
         id="line16" />
      <line
         x1="326.9"
         x2="393.0"
         y1="303.5"
         y2="417.8"
         id="line18" />
      <line
         x1="361.2"
         x2="410.7"
         y1="302.8"
         y2="388.5"
         id="line20" />
      <line
         x1="591.3"
         x2="723.5"
         y1="303.2"
         y2="303.2"
         id="line22" />
      <line
         x1="393.0"
         x2="525.2"
         y1="188.9"
         y2="188.9"
         id="line24" />
      <line
         x1="409.5"
         x2="508.7"
         y1="218.9"
         y2="218.9"
         id="line26" />
      <line
         x1="591.3"
         x2="549.9"
         y1="303.2"
         y2="375"
         id="line28" />
      <line
         x1="560.1"
         x2="529.1"
         y1="297.2"
         y2="351.0"
         id="line30" />
      <line
         x1="326.9"
         x2="194.7"
         y1="303.5"
         y2="303.5"
         id="line32" />
      <line
         x1="194.7"
         x2="153.4"
         y1="303.5"
         y2="375"
         id="line34" />
      <line
         x1="525.2"
         x2="573.6"
         y1="188.9"
         y2="105"
         id="line36" />
    </g>
    <path
       style="fill:#000000"
       d="M 42.505859,438.10001 L 42.505859,384.41348 L 49.610352,384.41348 L 49.610352,406.45938 L 77.515625,406.45938 L 77.515625,384.41348 L 84.620117,384.41348 L 84.620117,438.10001 L 77.515625,438.10001 L 77.515625,412.79483 L 49.610352,412.79483 L 49.610352,438.10001 L 42.505859,438.10001 z M 94.324707,411.95255 C 94.324703,403.04145 96.717279,396.06514 101.50244,391.02359 C 106.28758,385.98214 112.46433,383.46139 120.03271,383.46133 C 124.98874,383.46139 129.4565,384.64547 133.43604,387.01358 C 137.41548,389.38179 140.44892,392.68379 142.53638,396.91959 C 144.62373,401.15546 145.66743,405.95892 145.66748,411.32999 C 145.66743,416.77434 144.56879,421.64494 142.37158,425.9418 C 140.17427,430.23869 137.06148,433.49186 133.0332,435.70132 C 129.00484,437.9108 124.65915,439.01553 119.99609,439.01553 C 114.94236,439.01553 110.42576,437.79483 106.44629,435.35342 C 102.46679,432.91202 99.451651,429.57951 97.400879,425.35587 C 95.350093,421.13225 94.324703,416.66448 94.324707,411.95255 L 94.324707,411.95255 z M 101.64893,412.06241 C 101.64891,418.53215 103.38842,423.62859 106.86743,427.35172 C 110.34642,431.07487 114.71043,432.93644 119.95947,432.93643 C 125.30612,432.93644 129.70675,431.05656 133.16138,427.29678 C 136.61592,423.53703 138.34321,418.20257 138.34326,411.29337 C 138.34321,406.92328 137.60469,403.10859 136.12769,399.84927 C 134.65059,396.59004 132.48995,394.06318 129.64575,392.26871 C 126.80148,390.47432 123.60934,389.57711 120.06934,389.57706 C 115.04001,389.57711 110.71263,391.3044 107.08716,394.75894 C 103.46166,398.21357 101.64891,403.98139 101.64893,412.06241 L 101.64893,412.06241 z"
       id="text38" />
    <path
       style="fill:#000000"
       d="M 107.50586,94.400002 L 107.50586,40.713478 L 114.61035,40.713478 L 114.61035,62.759377 L 142.51562,62.759377 L 142.51562,40.713478 L 149.62012,40.713478 L 149.62012,94.400002 L 142.51562,94.400002 L 142.51562,69.094826 L 114.61035,69.094826 L 114.61035,94.400002 L 107.50586,94.400002 z M 159.32471,68.252541 C 159.3247,59.341443 161.71728,52.365131 166.50244,47.323586 C 171.28758,42.282134 177.46433,39.761384 185.03271,39.76133 C 189.98874,39.761384 194.4565,40.945465 198.43604,43.313576 C 202.41548,45.681789 205.44892,48.983787 207.53638,53.219582 C 209.62373,57.455458 210.66743,62.25892 210.66748,67.629982 C 210.66743,73.074339 209.56879,77.94494 207.37158,82.241798 C 205.17427,86.538681 202.06148,89.791852 198.0332,92.00132 C 194.00484,94.210793 189.65915,95.315528 184.99609,95.315529 C 179.94236,95.315528 175.42576,94.094826 171.44629,91.653419 C 167.46679,89.212018 164.45165,85.879502 162.40088,81.655861 C 160.35009,77.432245 159.3247,72.964476 159.32471,68.252541 L 159.32471,68.252541 z M 166.64893,68.362404 C 166.64891,74.83215 168.38842,79.92858 171.86743,83.651711 C 175.34642,87.374862 179.71043,89.236432 184.95947,89.236427 C 190.30612,89.236432 194.70675,87.356552 198.16138,83.596779 C 201.61592,79.837028 203.34321,74.50256 203.34326,67.593361 C 203.34321,63.223275 202.60469,59.408581 201.12769,56.149269 C 199.65059,52.890033 197.48995,50.36318 194.64575,48.568703 C 191.80148,46.774317 188.60934,45.877101 185.06934,45.877052 C 180.04001,45.877101 175.71263,47.604394 172.08716,51.058937 C 168.46166,54.513567 166.64891,60.281383 166.64893,68.362404 L 166.64893,68.362404 z"
       id="text40" />
    <path
       style="fill:#000000"
       d="M 565.12549,68.152542 C 565.12548,59.241444 567.51806,52.265133 572.30322,47.223587 C 577.08836,42.182135 583.26511,39.661386 590.8335,39.661331 C 595.78952,39.661386 600.25729,40.845467 604.23682,43.213577 C 608.21626,45.58179 611.24971,48.883789 613.33716,53.119583 C 615.42451,57.35546 616.46821,62.158922 616.46826,67.529984 C 616.46821,72.974341 615.36958,77.844941 613.17236,82.1418 C 610.97505,86.438683 607.86226,89.691853 603.83398,91.901321 C 599.80563,94.110794 595.45993,95.215529 590.79688,95.21553 C 585.74314,95.215529 581.22654,93.994828 577.24707,91.553421 C 573.26757,89.11202 570.25243,85.779504 568.20166,81.555862 C 566.15087,77.332247 565.12548,72.864478 565.12549,68.152542 L 565.12549,68.152542 z M 572.44971,68.262405 C 572.4497,74.732152 574.1892,79.828582 577.66821,83.551712 C 581.1472,87.274864 585.51121,89.136434 590.76025,89.136429 C 596.1069,89.136434 600.50753,87.256553 603.96216,83.49678 C 607.4167,79.737029 609.144,74.402562 609.14404,67.493362 C 609.144,63.123276 608.40547,59.308583 606.92847,56.049271 C 605.45137,52.790035 603.29073,50.263182 600.44653,48.468704 C 597.60226,46.674318 594.41012,45.777102 590.87012,45.777054 C 585.8408,45.777102 581.51341,47.504396 577.88794,50.958939 C 574.26244,54.413568 572.4497,60.181385 572.44971,68.262405 L 572.44971,68.262405 z M 625.80664,94.300003 L 625.80664,40.61348 L 632.91113,40.61348 L 632.91113,62.659378 L 660.81641,62.659378 L 660.81641,40.61348 L 667.9209,40.61348 L 667.9209,94.300003 L 660.81641,94.300003 L 660.81641,68.994827 L 632.91113,68.994827 L 632.91113,94.300003 L 625.80664,94.300003 z"
       id="text42" />
    <path
       style="fill:#000000"
       d="M 502.21289,437.79999 L 502.21289,384.11346 L 509.50049,384.11346 L 537.69873,426.26434 L 537.69873,384.11346 L 544.51025,384.11346 L 544.51025,437.79999 L 537.22266,437.79999 L 509.02441,395.61249 L 509.02441,437.79999 L 502.21289,437.79999 z"
       id="text44" />
  </g>
</svg>
